<svg width="50" height="50" viewBox="0 0 50 50" fill="none" xmlns="http://www.w3.org/2000/svg">
<rect width="50" height="50" rx="7.8125" fill="white"/>
<path d="M25.0001 11.6667C23.2491 11.6667 21.5153 12.0116 19.8976 12.6817C18.28 13.3518 16.8101 14.3339 15.572 15.572C13.0715 18.0725 11.6667 21.4639 11.6667 25.0001C11.6667 30.8934 15.4934 35.8934 20.7867 37.6667C21.4534 37.7734 21.6667 37.3601 21.6667 37.0001V34.7467C17.9734 35.5467 17.1867 32.9601 17.1867 32.9601C16.5734 31.4134 15.7067 31.0001 15.7067 31.0001C14.4934 30.1734 15.8001 30.2001 15.8001 30.2001C17.1334 30.2934 17.8401 31.5734 17.8401 31.5734C19.0001 33.6001 20.9601 33.0001 21.7201 32.6801C21.8401 31.8134 22.1867 31.2267 22.5601 30.8934C19.6001 30.5601 16.4934 29.4134 16.4934 24.3334C16.4934 22.8534 17.0001 21.6667 17.8667 20.7201C17.7334 20.3867 17.2667 19.0001 18.0001 17.2001C18.0001 17.2001 19.1201 16.8401 21.6667 18.5601C22.7201 18.2667 23.8667 18.1201 25.0001 18.1201C26.1334 18.1201 27.2801 18.2667 28.3334 18.5601C30.8801 16.8401 32.0001 17.2001 32.0001 17.2001C32.7334 19.0001 32.2667 20.3867 32.1334 20.7201C33.0001 21.6667 33.5067 22.8534 33.5067 24.3334C33.5067 29.4267 30.3867 30.5467 27.4134 30.8801C27.8934 31.2934 28.3334 32.1067 28.3334 33.3467V37.0001C28.3334 37.3601 28.5467 37.7867 29.2267 37.6667C34.5201 35.8801 38.3334 30.8934 38.3334 25.0001C38.3334 23.2491 37.9885 21.5153 37.3185 19.8976C36.6484 18.28 35.6663 16.8101 34.4282 15.572C33.1901 14.3339 31.7202 13.3518 30.1025 12.6817C28.4849 12.0116 26.751 11.6667 25.0001 11.6667Z" fill="black"/>
</svg>
