<svg width="50" height="50" viewBox="0 0 50 50" fill="none" xmlns="http://www.w3.org/2000/svg">
<rect width="50" height="50" rx="7.8125" fill="black"/>
<path d="M39.3602 20.3983V21.7424H36.4713V28.8141H35.0267V21.7425H32.0776V20.3983H39.3602ZM39.685 28.0124C39.7867 28.0124 39.8758 28.049 39.9511 28.1223C40.0276 28.1955 40.0656 28.2833 40.0667 28.3856C40.0665 28.4527 40.0479 28.5184 40.0128 28.5756C39.9784 28.6321 39.9302 28.6788 39.8728 28.7116C39.8161 28.7455 39.7511 28.7632 39.685 28.7627C39.5792 28.7627 39.4892 28.726 39.4139 28.6528C39.3385 28.5794 39.3012 28.4907 39.3022 28.3856C39.3013 28.2833 39.3385 28.1955 39.4139 28.1223C39.4892 28.049 39.5792 28.0124 39.685 28.0124ZM11.0542 28.8141L5.72779 22.1936V28.8106H4.2832V20.3948H6.08882L12.8182 28.7511L12.8183 21.7425L12.8177 20.3983H20.1003V21.7424H14.2628V23.9048H18.9573V25.249H14.2628V27.4699H20.1003V28.8141H11.0542ZM24.73 25.2362L25.6767 26.4132L23.7368 28.824H21.841L24.73 25.2362ZM23.7368 20.4018L26.1809 23.4371L28.6174 20.4111L30.5078 20.4082L27.1274 24.6126L30.5133 28.8176H28.6174L21.8464 20.4018H23.7368ZM42.1504 25.2174H42.7905V27.6835C42.7896 27.9101 42.7405 28.1039 42.6447 28.267C42.5478 28.4299 42.4136 28.5544 42.2415 28.6422C42.0702 28.7289 41.8695 28.7733 41.6414 28.7733C41.433 28.7733 41.2461 28.7357 41.0797 28.6624C40.9133 28.5891 40.7812 28.4792 40.6843 28.3345C40.5863 28.1898 40.5384 28.0094 40.5384 27.7934H41.1796C41.1805 27.8879 41.202 27.9698 41.2431 28.0384C41.2836 28.1061 41.3427 28.1607 41.4134 28.1955C41.4868 28.2323 41.571 28.2506 41.6659 28.2506C41.7688 28.2506 41.8568 28.2294 41.9282 28.1859C41.9996 28.1434 42.0545 28.0798 42.0927 27.995C42.1299 27.911 42.1495 27.8069 42.1504 27.6835V25.2174ZM45.4242 26.1818C45.4087 26.0323 45.3401 25.9156 45.2207 25.8327C45.1003 25.7487 44.9447 25.7073 44.7538 25.7073C44.6199 25.7073 44.5043 25.7276 44.4084 25.7671C44.3125 25.8076 44.2381 25.8616 44.1871 25.9301C44.1364 25.9985 44.1109 26.0767 44.1088 26.1645C44.1088 26.2377 44.1265 26.3014 44.1607 26.3544C44.1962 26.41 44.2441 26.4565 44.3007 26.4905C44.3621 26.5291 44.4278 26.5605 44.4965 26.584C44.5688 26.609 44.6413 26.6303 44.7137 26.6477L45.0475 26.7296C45.1816 26.7605 45.3118 26.8019 45.4361 26.855C45.5603 26.9071 45.6729 26.9737 45.7717 27.0537C45.8706 27.1337 45.9489 27.2302 46.0066 27.343C46.0644 27.4559 46.0938 27.588 46.0938 27.7404C46.0938 27.9457 46.0409 28.1261 45.9342 28.2824C45.8276 28.4377 45.6739 28.5592 45.4723 28.647C45.2716 28.7338 45.0288 28.7781 44.7431 28.7781C44.4671 28.7781 44.2263 28.7357 44.0237 28.6508C43.8202 28.5669 43.6616 28.4434 43.547 28.2814C43.4325 28.1194 43.3709 27.9217 43.362 27.6892H43.9964C44.0051 27.8108 44.0443 27.912 44.1109 27.994C44.1783 28.075 44.2664 28.1348 44.3742 28.1753C44.4828 28.2149 44.6041 28.2352 44.7382 28.2352C44.8782 28.2352 45.0015 28.2139 45.1081 28.1724C45.2139 28.131 45.297 28.0731 45.3568 27.9978C45.4175 27.9235 45.4478 27.8358 45.4488 27.7356C45.4478 27.6439 45.4203 27.5677 45.3675 27.5079C45.3137 27.4481 45.2393 27.398 45.1443 27.3575C45.0485 27.317 44.9369 27.2803 44.8097 27.2485L44.4044 27.1463C44.1118 27.072 43.8799 26.9592 43.7105 26.8077C43.5402 26.6563 43.456 26.4558 43.456 26.204C43.456 25.9976 43.5128 25.8163 43.6274 25.6609C43.7409 25.5058 43.8965 25.3852 44.0932 25.2994C44.2909 25.2125 44.5141 25.1701 44.7626 25.1701C45.0152 25.1701 45.2363 25.2125 45.4273 25.2994C45.618 25.3852 45.7679 25.5047 45.8764 25.6571C45.9851 25.8096 46.0419 25.9841 46.0449 26.1818H45.4242Z" fill="white"/>
</svg>
