<svg width="50" height="50" viewBox="0 0 50 50" fill="none" xmlns="http://www.w3.org/2000/svg">
<g clip-path="url(#clip0_214_249)">
<path d="M38.2812 0H11.7188C5.24666 0 0 5.24666 0 11.7188V38.2812C0 44.7533 5.24666 50 11.7188 50H38.2812C44.7533 50 50 44.7533 50 38.2812V11.7188C50 5.24666 44.7533 0 38.2812 0Z" fill="#007ACC"/>
<path d="M11.0571 25.1659L11.0413 27.2136H17.5491V45.7056H22.1524V27.2136H28.6602V25.2056C28.6602 24.0944 28.6366 23.1659 28.6047 23.1421C28.5809 23.1105 24.6206 23.0944 19.819 23.1025L11.0809 23.1263L11.0571 25.1659ZM40.3454 23.0681C41.6151 23.3857 42.5834 23.9491 43.4723 24.8696C43.9327 25.3618 44.6151 26.2587 44.6707 26.473C44.6866 26.5364 42.512 27.9968 41.1946 28.8142C41.1469 28.846 40.9563 28.6396 40.742 28.3222C40.0993 27.3857 39.4247 26.9808 38.3928 26.9095C36.877 26.8062 35.9008 27.5999 35.9088 28.9253C35.9088 29.3142 35.9643 29.5443 36.1231 29.8618C36.4563 30.5523 37.0754 30.965 39.02 31.8062C42.5993 33.346 44.1309 34.3618 45.0834 35.8062C46.1469 37.4173 46.385 39.9888 45.6627 41.9015C44.8692 43.9808 42.9008 45.3935 40.1309 45.8618C39.2739 46.0126 37.242 45.9888 36.3215 45.8222C34.3135 45.465 32.4088 44.473 31.2342 43.1714C30.7739 42.6634 29.877 41.338 29.9327 41.2427C29.9563 41.2111 30.1627 41.0841 30.3928 40.9491C30.6151 40.8222 31.4565 40.338 32.25 39.8777L33.6866 39.0443L33.9881 39.4888C34.4088 40.1316 35.3293 41.0126 35.885 41.3062C37.4801 42.1476 39.6708 42.0284 40.75 41.0603C41.2104 40.6396 41.4008 40.203 41.4008 39.5603C41.4008 38.9808 41.3293 38.7269 41.0278 38.2903C40.6389 37.7349 39.8454 37.2665 37.5913 36.2903C35.012 35.1792 33.9008 34.4888 32.885 33.3935C32.2977 32.7587 31.742 31.7427 31.512 30.8935C31.3215 30.1872 31.2739 28.4173 31.4247 27.703C31.9563 25.2111 33.8374 23.473 36.5516 22.957C37.4327 22.7903 39.4801 22.8538 40.3454 23.0681Z" fill="white"/>
</g>
<defs>
<clipPath id="clip0_214_249">
<rect width="50" height="50" fill="white"/>
</clipPath>
</defs>
</svg>
