<svg width="50" height="50" viewBox="0 0 50 50" fill="none" xmlns="http://www.w3.org/2000/svg">
<rect width="50" height="50" rx="7" fill="white"/>
<g clip-path="url(#clip0_224_995)">
<path d="M24.4882 12.0014C26.1096 12.048 27.574 12.9998 28.2757 14.4728L31.0602 20.3303L31.105 20.2171C31.2155 19.9251 31.3062 19.626 31.3763 19.3218L31.4152 19.1404C31.8844 16.7943 34.1647 15.2759 36.5152 15.74C37.0735 15.8515 37.6043 16.0719 38.0774 16.3886C38.5504 16.7053 38.9565 17.1122 39.2723 17.5858C39.5881 18.0595 39.8074 18.5908 39.9178 19.1493C40.0282 19.7078 40.0275 20.2825 39.9157 20.8407C39.2903 23.964 37.678 26.8627 35.3655 29.1591L35.2922 29.2302L36.2684 31.2826C37.4014 33.665 36.2275 36.5447 33.7606 37.3528L33.6492 37.3876L33.5643 37.4133C33.1868 37.5195 32.7966 37.5737 32.4045 37.5742C31.5847 37.5743 30.7817 37.342 30.0885 36.9043C29.3954 36.4666 28.8404 35.8415 28.4881 35.1013L27.7346 33.5171L27.5445 33.5643C26.5259 33.805 25.4928 33.9383 24.4592 33.9588L24.1773 33.9616C23.1826 33.9616 22.1715 33.846 21.1614 33.6218L20.9622 33.5754L20.2383 35.0973C19.7503 36.1236 18.8785 36.917 17.811 37.3065L17.6821 37.3513C17.1261 37.5346 16.5387 37.6034 15.9554 37.5534C15.3721 37.5033 14.805 37.3356 14.2883 37.0602C12.2305 35.9664 11.4458 33.4056 12.4499 31.2905L13.3487 29.4004L13.2702 29.3242C12.038 28.1086 11.0611 26.727 10.4131 25.2417L10.3267 25.0386L10.3143 25.0057C9.42237 22.788 10.4935 20.2637 12.7097 19.3664C14.4481 18.6627 16.3751 19.168 17.5601 20.4888L17.5824 20.5144L20.4471 14.4884C20.7868 13.7625 21.3216 13.1455 21.9919 12.7062C22.6622 12.267 23.4414 12.0229 24.2425 12.0012L24.3638 12L24.4882 12.0014Z" fill="white"/>
<path d="M20.2091 31.9271L22.7751 26.5285C20.8152 26.1123 18.8433 24.9 17.728 23.4252L15.0449 29.066C16.5359 30.3308 18.3261 31.325 20.2091 31.9271Z" fill="#1A007F"/>
<path d="M30.9174 23.2634C29.6283 24.8435 27.8383 26.0153 25.9229 26.4719L28.4807 31.8543C30.3476 31.2239 32.0932 30.2056 33.6006 28.9005L30.9174 23.2634Z" fill="#4E000A"/>
<path d="M15.0448 29.0662L13.7033 31.8867C13.0203 33.3212 13.5335 35.0871 14.9397 35.8347C16.4308 36.6266 18.2654 36.0085 18.9847 34.5011L20.209 31.9272C18.3183 31.3177 16.5642 30.346 15.0448 29.0662Z" fill="#1A007F"/>
<path d="M36.2433 17.1053C35.8639 17.0293 35.4732 17.0289 35.0936 17.1039C34.714 17.179 34.3529 17.3281 34.031 17.5427C33.709 17.7573 33.4325 18.0333 33.2172 18.3548C33.0019 18.6764 32.8521 19.0371 32.7763 19.4166C32.4934 20.831 31.8307 22.1482 30.9175 23.2676L33.5966 28.9087C36.0696 26.763 37.896 23.8415 38.5507 20.5723C38.8699 18.9721 37.8354 17.4204 36.2433 17.1053Z" fill="#FF9396"/>
<path d="M25.923 26.4719C25.3493 26.6093 24.7634 26.682 24.1774 26.682C23.7209 26.682 23.2481 26.6295 22.7753 26.5285C20.8154 26.1123 18.8435 24.9 17.7282 23.4252C17.4493 23.0574 17.2232 22.6735 17.0655 22.2815C16.4553 20.7743 14.738 20.047 13.2307 20.6531C11.7234 21.2633 10.9963 22.9807 11.6023 24.4878C12.2932 26.2011 13.5136 27.773 15.0451 29.0661C16.5631 30.3457 18.3158 31.3174 20.2052 31.9271C21.5024 32.3432 22.8479 32.5736 24.1734 32.5736C25.6443 32.5736 27.0949 32.319 28.4769 31.8543L25.923 26.4719Z" fill="#002DC8"/>
<path d="M35.0106 31.8745L33.5964 28.9005L30.9173 23.2634L30.9133 23.2675C30.9133 23.2675 30.9133 23.2634 30.9173 23.2634L27.022 15.0685C26.7829 14.5657 26.4062 14.1409 25.9356 13.8434C25.465 13.5459 24.9197 13.3879 24.363 13.3876C23.2274 13.3876 22.193 14.0422 21.7041 15.0686L17.7319 23.4252C18.8472 24.9 20.8191 26.1123 22.779 26.5285L24.0639 23.8292C24.1852 23.5746 24.5488 23.5746 24.6701 23.8292L25.9269 26.4719H25.9349H25.9267L28.4847 31.8543L29.7414 34.497C29.9803 35.0008 30.3575 35.4263 30.8289 35.7239C31.3004 36.0215 31.8467 36.1791 32.4043 36.1781C32.667 36.1781 32.9296 36.1418 33.1883 36.069C34.9622 35.58 35.8027 33.5394 35.0106 31.8745Z" fill="#FF536A"/>
</g>
<defs>
<clipPath id="clip0_224_995">
<rect width="30" height="25.6641" fill="white" transform="translate(10 12)"/>
</clipPath>
</defs>
</svg>
