<svg width="50" height="50" viewBox="0 0 50 50" fill="none" xmlns="http://www.w3.org/2000/svg">
<rect y="0.000244141" width="50" height="50" rx="7.8125" fill="#141416"/>
<mask id="mask0_213_173" style="mask-type:luminance" maskUnits="userSpaceOnUse" x="12" y="5" width="26" height="40">
<path d="M12.3347 5.76416H38V44.2543H12.3347V5.76416Z" fill="white"/>
</mask>
<g mask="url(#mask0_213_173)">
<path d="M18.7521 44.254C22.2932 44.254 25.167 41.3801 25.167 37.839V31.4238H18.7521C15.211 31.4238 12.3369 34.2979 12.3369 37.839C12.3369 41.3801 15.211 44.254 18.7521 44.254Z" fill="#0ACF83"/>
<path d="M12.3369 25.009C12.3369 21.4679 15.211 18.594 18.7521 18.594H25.167V31.4239H18.7521C15.211 31.4239 12.3369 28.5501 12.3369 25.009Z" fill="#A259FF"/>
<path d="M12.3369 12.1789C12.3369 8.63779 15.211 5.76392 18.7521 5.76392H25.167V18.594H18.7521C15.211 18.594 12.3369 15.72 12.3369 12.1789Z" fill="#F24E1E"/>
<path d="M25.1667 5.76392H31.5817C35.1228 5.76392 37.9969 8.63779 37.9969 12.1789C37.9969 15.72 35.1228 18.594 31.5817 18.594H25.1667V5.76392Z" fill="#FF7262"/>
<path d="M37.9969 25.009C37.9969 28.5501 35.1228 31.4239 31.5817 31.4239C28.0406 31.4239 25.1667 28.5501 25.1667 25.009C25.1667 21.4679 28.0406 18.594 31.5817 18.594C35.1228 18.594 37.9969 21.4679 37.9969 25.009Z" fill="#1ABCFE"/>
</g>
</svg>
