<svg width="50" height="50" viewBox="0 0 50 50" fill="none" xmlns="http://www.w3.org/2000/svg">
<rect width="50" height="50" rx="7" fill="white"/>
<g clip-path="url(#clip0_335_12)">
<path d="M32.8948 17.1055H17.1055V32.8948H32.8948V17.1055Z" fill="white"/>
<path d="M32.895 40L40.0003 32.8947L36.4476 32.2886L32.895 32.8947L32.2466 36.1443L32.895 40Z" fill="#EA4335"/>
<path d="M10 32.8947V37.6315C10 38.9401 11.0598 40 12.3684 40H17.1053L17.8348 36.4473L17.1053 32.8947L13.2343 32.2886L10 32.8947Z" fill="#188038"/>
<path d="M40.0003 17.1053V12.3684C40.0003 11.0598 38.9404 10 37.6319 10H32.895C32.4628 11.762 32.2467 13.0587 32.2466 13.8902C32.2466 14.7215 32.4627 15.7932 32.895 17.1053C34.4665 17.5553 35.6507 17.7803 36.4476 17.7803C37.2446 17.7803 38.4288 17.5554 40.0003 17.1053Z" fill="#1967D2"/>
<path d="M39.9998 17.1055H32.8945V32.8948H39.9998V17.1055Z" fill="#FBBC04"/>
<path d="M32.8948 32.8945H17.1055V39.9998H32.8948V32.8945Z" fill="#34A853"/>
<path d="M32.8947 10H12.3685C11.0598 10 10 11.0598 10 12.3684V32.8947H17.1053V17.1053H32.8947V10Z" fill="#4285F4"/>
<path d="M20.3439 29.3541C19.7537 28.9554 19.3451 28.3733 19.1221 27.6033L20.4919 27.039C20.6161 27.5126 20.8332 27.8797 21.1432 28.1403C21.4511 28.4008 21.8261 28.5291 22.2642 28.5291C22.7122 28.5291 23.097 28.3929 23.4188 28.1205C23.7405 27.8481 23.9024 27.5008 23.9024 27.0804C23.9024 26.6501 23.7327 26.2988 23.3932 26.0265C23.0537 25.7541 22.6274 25.6179 22.1182 25.6179H21.3267V24.2621H22.0372C22.4754 24.2621 22.8444 24.1436 23.1444 23.9067C23.4444 23.6699 23.5944 23.3462 23.5944 22.9337C23.5944 22.5666 23.4602 22.2745 23.1919 22.0554C22.9235 21.8363 22.5839 21.7258 22.1714 21.7258C21.7687 21.7258 21.4491 21.8324 21.2122 22.0475C20.9755 22.2631 20.7975 22.5355 20.6951 22.839L19.3392 22.2745C19.5187 21.7653 19.8484 21.3153 20.3319 20.9265C20.8154 20.5376 21.4332 20.3423 22.1832 20.3423C22.7379 20.3423 23.2372 20.4489 23.6794 20.664C24.1214 20.8791 24.4688 21.1771 24.7194 21.5561C24.9702 21.937 25.0944 22.3633 25.0944 22.837C25.0944 23.3205 24.978 23.7291 24.7452 24.0646C24.5123 24.4001 24.2261 24.6567 23.8866 24.8363V24.9172C24.3249 25.0979 24.7057 25.3948 24.9879 25.7758C25.2741 26.1606 25.4182 26.6205 25.4182 27.1574C25.4182 27.6942 25.2819 28.1738 25.0096 28.5942C24.7372 29.0146 24.3604 29.3462 23.8826 29.587C23.403 29.8278 22.8642 29.9503 22.2662 29.9503C21.5734 29.9521 20.934 29.7528 20.3439 29.3541ZM28.7575 22.5567L27.2536 23.6442L26.5016 22.5035L29.1996 20.5573H30.2338V29.737H28.7575V22.5567Z" fill="#4285F4"/>
</g>
<defs>
<clipPath id="clip0_335_12">
<rect width="30" height="30" fill="white" transform="translate(10 10)"/>
</clipPath>
</defs>
</svg>
