<svg width="50" height="50" viewBox="0 0 50 50" fill="none" xmlns="http://www.w3.org/2000/svg">
<g clip-path="url(#clip0_213_162)">
<path d="M38.2812 0H11.7188C5.24666 0 0 5.24666 0 11.7188V38.2812C0 44.7533 5.24666 50 11.7188 50H38.2812C44.7533 50 50 44.7533 50 38.2812V11.7188C50 5.24666 44.7533 0 38.2812 0Z" fill="#242938"/>
<path d="M23.4136 6.07737C24.3743 5.52756 25.6255 5.52502 26.5853 6.07737C31.4138 8.80588 36.2439 11.5299 41.0716 14.26C41.9798 14.7715 42.587 15.7821 42.5779 16.8283V33.2434C42.5847 34.333 41.9173 35.3678 40.9593 35.8676C36.1466 38.5811 31.3363 41.2977 26.5243 44.0112C25.5441 44.5717 24.2677 44.5285 23.3177 43.9219C21.8749 43.0856 20.4296 42.2531 18.9866 41.4176C18.6917 41.2418 18.3593 41.102 18.1511 40.816C18.3353 40.568 18.6644 40.5371 18.9318 40.4287C19.5339 40.2371 20.0872 39.9297 20.6404 39.6315C20.7804 39.5358 20.9511 39.5725 21.0853 39.658C22.3191 40.3655 23.5421 41.0936 24.78 41.7942C25.0441 41.9467 25.3114 41.7442 25.5372 41.6184C30.2599 38.949 34.9884 36.2901 39.7105 33.6199C39.8855 33.5358 39.9822 33.35 39.9679 33.1584C39.9712 27.7434 39.9687 22.3276 39.9697 16.9123C39.9896 16.6951 39.8638 16.4951 39.6671 16.4061C34.8712 13.7051 30.0775 11.0002 25.2823 8.29866C25.1993 8.24158 25.1009 8.21094 25.0001 8.21077C24.8993 8.21059 24.8008 8.24089 24.7175 8.29768C19.9222 11.0002 15.1296 13.7078 10.3343 16.4084C10.1384 16.4977 10.007 16.6944 10.0302 16.9123C10.0312 22.3276 10.0302 27.7434 10.0302 33.1592C10.0218 33.2528 10.0424 33.3466 10.089 33.4282C10.1357 33.5097 10.2062 33.5749 10.2911 33.6151C11.5706 34.3406 12.8519 35.0612 14.1323 35.7844C14.8538 36.1725 15.7394 36.4033 16.5343 36.1059C17.2355 35.8543 17.7271 35.1385 17.7138 34.394C17.7204 29.0106 17.7105 23.6264 17.7187 18.2436C17.7011 18.0047 17.9279 17.8073 18.1603 17.8299C18.7751 17.8256 19.3907 17.8215 20.0056 17.8315C20.2622 17.8256 20.4388 18.083 20.4072 18.3237C20.4046 23.7412 20.4138 29.1588 20.403 34.5762C20.4046 36.0201 19.8114 37.5912 18.4759 38.2977C16.8308 39.1498 14.7972 38.9692 13.1718 38.152C11.7648 37.4496 10.4218 36.6207 9.03977 35.8684C8.07922 35.3713 7.41516 34.3324 7.422 33.2436V16.8283C7.41184 15.7604 8.04348 14.7315 8.97961 14.2274C13.7915 11.5119 18.6027 8.79417 23.4136 6.07737Z" fill="#81CD39"/>
<path d="M27.6117 17.4483C29.7103 17.3132 31.957 17.3682 33.8455 18.4022C35.3078 19.1944 36.1184 20.8573 36.1441 22.4817C36.1033 22.7007 35.8742 22.8216 35.665 22.8065C35.0562 22.8057 34.4471 22.8149 33.8383 22.8024C33.5799 22.8124 33.4299 22.5743 33.3975 22.346C33.2225 21.5686 32.7984 20.7989 32.067 20.4239C30.9439 19.8618 29.642 19.8901 28.4174 19.9018C27.5234 19.9491 26.5621 20.0266 25.8047 20.5522C25.2232 20.9505 25.0467 21.7544 25.2541 22.4018C25.4498 22.8667 25.9863 23.0167 26.4256 23.155C28.9547 23.8165 31.6348 23.7505 34.1156 24.621C35.1428 24.9759 36.1475 25.6659 36.499 26.7413C36.959 28.1827 36.7574 29.9053 35.7318 31.0624C34.9002 32.0145 33.6891 32.5329 32.4811 32.8143C30.874 33.1727 29.2062 33.1819 27.5742 33.0227C26.0396 32.8477 24.4426 32.4446 23.258 31.3991C22.2449 30.5194 21.7502 29.1487 21.7992 27.8261C21.8109 27.6026 22.0334 27.4468 22.2475 27.4651C22.8605 27.4602 23.4738 27.4585 24.0869 27.4661C24.332 27.4485 24.5135 27.6602 24.5262 27.8911C24.6391 28.6315 24.9174 29.4089 25.5633 29.8477C26.8094 30.6518 28.3732 30.5968 29.8002 30.6192C30.9824 30.5669 32.3096 30.5511 33.2742 29.7696C33.7832 29.3239 33.934 28.5782 33.7965 27.9368C33.6475 27.3952 33.0809 27.1428 32.5943 26.9778C30.0977 26.1882 27.3875 26.4747 24.915 25.5815C23.9111 25.2268 22.9404 24.5561 22.5549 23.5249C22.0168 22.0653 22.2633 20.2598 23.3963 19.1421C24.501 18.0298 26.0955 17.6014 27.6117 17.4483Z" fill="#81CD39"/>
</g>
<defs>
<clipPath id="clip0_213_162">
<rect width="50" height="50" fill="white"/>
</clipPath>
</defs>
</svg>
