<svg width="50" height="50" viewBox="0 0 50 50" fill="none" xmlns="http://www.w3.org/2000/svg">
<g clip-path="url(#clip0_224_999)">
<mask id="mask0_224_999" style="mask-type:luminance" maskUnits="userSpaceOnUse" x="0" y="0" width="50" height="50">
<path d="M0 0H50V50H0V0Z" fill="white"/>
</mask>
<g mask="url(#mask0_224_999)">
<path d="M38.2812 0H11.7188C5.24668 0 0 5.24668 0 11.7188V38.2812C0 44.7533 5.24668 50 11.7188 50H38.2812C44.7533 50 50 44.7533 50 38.2812V11.7188C50 5.24668 44.7533 0 38.2812 0Z" fill="white"/>
<mask id="mask1_224_999" style="mask-type:luminance" maskUnits="userSpaceOnUse" x="7" y="7" width="35" height="35">
<path d="M7.8125 7.8125H41.9922V41.9922H7.8125V7.8125Z" fill="white"/>
</mask>
<g mask="url(#mask1_224_999)">
<path d="M9.86914 9.28665L28.7816 7.88978C31.1049 7.69056 31.7018 7.82474 33.1625 8.88685L39.1996 13.1398C40.1953 13.8712 40.527 14.0704 40.527 14.8669V38.1921C40.527 39.654 39.9961 40.5187 38.1377 40.6507L16.1752 41.981C14.7807 42.0468 14.1166 41.8476 13.3861 40.9169L8.94043 35.1357C8.14297 34.0718 7.8125 33.2753 7.8125 32.3443V11.6109C7.8125 10.4156 8.34336 9.41888 9.86914 9.28665Z" fill="white"/>
<path fill-rule="evenodd" clip-rule="evenodd" d="M28.7816 7.89024L9.86914 9.28712C8.34336 9.41895 7.8125 10.416 7.8125 11.6109V32.3443C7.8125 33.275 8.14297 34.0715 8.94043 35.1358L13.3861 40.9166C14.1166 41.8473 14.7807 42.0469 16.1752 41.9807L38.1381 40.651C39.9951 40.5188 40.5271 39.6541 40.5271 38.1926V14.8672C40.5271 14.1119 40.2289 13.8941 39.3504 13.2496L33.1625 8.88673C31.702 7.82462 31.1049 7.69044 28.7816 7.88966V7.89024ZM16.6719 14.4854C14.8785 14.6061 14.4717 14.6334 13.4531 13.8053L10.8637 11.7455C10.6006 11.4791 10.7328 11.1465 11.3959 11.0801L29.5771 9.75157C31.1039 9.61837 31.899 10.1504 32.4961 10.6152L35.6143 12.8746C35.7475 12.9418 36.0791 13.3395 35.6803 13.3395L16.9043 14.4697L16.6719 14.4854ZM14.5811 37.9932V18.1918C14.5811 17.3272 14.8467 16.9281 15.6416 16.8613L37.207 15.5986C37.9385 15.5328 38.2689 15.9977 38.2689 16.8609V36.5303C38.2689 37.3951 38.1357 38.1266 36.9418 38.1926L16.3051 39.3889C15.1113 39.4547 14.5814 39.0572 14.5814 37.9932H14.5811ZM34.9521 19.2535C35.0846 19.8518 34.9521 20.4498 34.3541 20.5182L33.3594 20.7154V35.3352C32.4957 35.8 31.7006 36.0654 31.0363 36.0654C29.9742 36.0654 29.709 35.7328 28.9137 34.7369L22.4094 24.5035V34.4043L24.467 34.8703C24.467 34.8703 24.467 36.0666 22.8068 36.0666L18.2301 36.332C18.0969 36.0654 18.2301 35.4014 18.6939 35.2692L19.8893 34.9375V21.8467L18.2305 21.7125C18.0971 21.1143 18.4287 20.2506 19.3584 20.1836L24.2689 19.8531L31.0365 30.2188V21.0483L29.3115 20.85C29.1783 20.1176 29.709 19.5854 30.3721 19.5205L34.9521 19.2535Z" fill="black"/>
</g>
</g>
</g>
<defs>
<clipPath id="clip0_224_999">
<rect width="50" height="50" fill="white"/>
</clipPath>
</defs>
</svg>
