<svg width="50" height="50" viewBox="0 0 50 50" fill="none" xmlns="http://www.w3.org/2000/svg">
<g clip-path="url(#clip0_224_896)">
<path d="M38.2812 0H11.7188C5.24666 0 0 5.24666 0 11.7188V38.2812C0 44.7533 5.24666 50 11.7188 50H38.2812C44.7533 50 50 44.7533 50 38.2812V11.7188C50 5.24666 44.7533 0 38.2812 0Z" fill="white"/>
<mask id="mask0_224_896" style="mask-type:luminance" maskUnits="userSpaceOnUse" x="7" y="7" width="36" height="36">
<path d="M7.42188 7.42188H42.5781V42.5781H7.42188V7.42188Z" fill="white"/>
</mask>
<g mask="url(#mask0_224_896)">
<path d="M33.491 33.0145C33.7148 31.151 33.6476 30.8791 35.0346 31.1799L35.3875 31.2114C36.4547 31.2594 37.8498 31.0397 38.6834 30.6594C40.4482 29.8408 41.4945 28.4731 39.7547 28.8328C35.7857 29.6514 35.4975 28.3069 35.4975 28.3069C39.69 22.086 41.4437 14.1895 39.9291 12.2573C35.8037 6.98382 28.6611 9.47776 28.5418 9.54358L28.5033 9.55042C27.7205 9.38577 26.8553 9.28948 25.8527 9.27581C24.0566 9.24847 22.6943 9.7469 21.6588 10.5311C21.6588 10.5311 8.91874 5.28226 9.51073 17.1325C9.6369 19.6537 13.1225 36.2211 17.2834 31.2086C18.8064 29.3768 20.276 27.8289 20.276 27.8289C21.0037 28.3137 21.8785 28.561 22.7945 28.4717L22.8658 28.4114C22.8448 28.6487 22.8546 28.8878 22.8947 29.1227C21.8236 30.3201 22.1394 30.5303 19.9971 30.9711C17.8301 31.4174 19.1045 32.2125 19.934 32.4213C20.942 32.6741 23.2738 33.0311 24.8504 30.8256L24.7871 31.0768C25.2074 31.4133 25.1785 33.4938 25.2402 34.9797C25.3021 36.4657 25.3996 37.8541 25.7031 38.6711C26.0066 39.4883 26.3623 41.5963 29.1775 41.0057C31.5301 40.5018 33.3291 39.7752 33.4937 33.027" fill="black"/>
<path d="M33.491 33.0145C33.7148 31.151 33.6476 30.8791 35.0346 31.1799L35.3875 31.2114C36.4547 31.2594 37.8498 31.0397 38.6834 30.6594C40.4482 29.8408 41.4945 28.4731 39.7547 28.8328C35.7857 29.6514 35.4975 28.3069 35.4975 28.3069C39.69 22.086 41.4437 14.1895 39.9291 12.2573C35.8037 6.98382 28.6611 9.47776 28.5418 9.54358L28.5033 9.55042C27.7205 9.38577 26.8553 9.28948 25.8527 9.27581C24.0566 9.24847 22.6943 9.7469 21.6588 10.5311C21.6588 10.5311 8.91874 5.28226 9.51073 17.1325C9.6369 19.6537 13.1225 36.2211 17.2834 31.2086C18.8064 29.3768 20.276 27.8289 20.276 27.8289C21.0037 28.3137 21.8785 28.561 22.7945 28.4717L22.8658 28.4114C22.8448 28.6487 22.8546 28.8878 22.8947 29.1227C21.8236 30.3201 22.1394 30.5303 19.9971 30.9711C17.8301 31.4174 19.1045 32.2125 19.934 32.4213C20.942 32.6741 23.2738 33.0311 24.8504 30.8256L24.7871 31.0768C25.2074 31.4133 25.1785 33.4938 25.2402 34.9797C25.3021 36.4657 25.3996 37.8541 25.7031 38.6711C26.0066 39.4883 26.3623 41.5963 29.1775 41.0057C31.5301 40.5018 33.3291 39.7752 33.4937 33.027" stroke="black" stroke-width="0.944375"/>
<path d="M39.7423 28.8453C35.7735 29.6637 35.4852 28.3193 35.4852 28.3193C39.6778 22.0982 41.4315 14.2018 39.918 12.2695C35.7928 6.99609 28.6503 9.4914 28.5307 9.55605L28.4923 9.56288C27.6199 9.3878 26.733 9.29534 25.8432 9.28671C24.0469 9.25937 22.6846 9.75781 21.6493 10.542C21.6493 10.542 8.90788 5.29335 9.50104 17.1435C9.62741 19.6648 13.113 36.2322 17.2739 31.2197C18.8065 29.3768 20.276 27.8289 20.276 27.8289C21.0038 28.3137 21.8786 28.5609 22.7946 28.4717L22.8659 28.4113C22.8449 28.6487 22.8546 28.8878 22.8948 29.1227C21.8237 30.3201 22.1395 30.5303 19.9971 30.9711C17.8301 31.4174 19.1046 32.2125 19.9341 32.4213C20.9421 32.674 23.2739 33.031 24.8505 30.8256L24.7872 31.0768C25.2075 31.4133 25.5012 33.2644 25.4518 34.9426C25.4024 36.6209 25.3694 37.7717 25.6991 38.6725C26.0288 39.5732 26.3583 41.5976 29.1735 41.007C31.526 40.5031 32.744 39.1943 32.9157 37.0164C33.0366 35.4672 33.3085 35.6951 33.3278 34.3109L33.5475 33.6545C33.7987 31.5533 33.5885 30.8764 35.0374 31.1922L35.3903 31.2238C36.4575 31.2719 37.8542 31.0521 38.6725 30.6717C40.4372 29.8533 41.4837 28.4853 39.7438 28.8453H39.7423Z" fill="#336791"/>
<path d="M28.5294 9.49141C28.0899 9.62871 35.6212 6.73809 39.903 12.2078C41.4137 14.14 39.6628 22.0365 35.47 28.2574M25.0192 30.0359C24.9094 33.9443 25.0467 37.8801 25.4286 38.825C25.8102 39.7697 26.6301 41.6402 29.4467 41.0387C31.7993 40.5348 32.6561 39.5582 33.027 37.4035L33.8962 30.5139L25.0192 30.0359ZM21.6438 10.4432C21.6438 10.4432 8.89401 5.23027 9.48737 17.0801C9.61374 19.6014 13.0991 36.1688 17.2602 31.1563C18.779 29.3256 20.1524 27.8934 20.1524 27.8934L21.6438 10.4432Z" stroke="white" stroke-width="0.314625" stroke-linecap="round" stroke-linejoin="round"/>
<path d="M35.4712 28.2547C35.4712 28.2547 35.746 29.6006 39.7284 28.7793C41.4684 28.4195 40.4206 29.7873 38.6573 30.6058C37.2098 31.2787 33.9634 31.4504 33.9098 30.5234C33.7725 28.1269 35.6182 28.8549 35.485 28.2547C35.3641 27.7136 34.5374 27.1836 33.9936 25.8597C33.5171 24.706 27.4567 15.8484 35.6745 17.1625C35.9766 17.1008 33.5321 9.33494 25.8417 9.22224C18.1513 9.10954 18.3944 18.6773 18.3944 18.6773" stroke="white" stroke-width="0.314625" stroke-linecap="round" stroke-linejoin="bevel"/>
<path d="M22.8673 29.076C21.7962 30.2734 22.112 30.4836 19.9698 30.9244C17.8026 31.3707 19.0772 32.1658 19.9065 32.3746C20.9145 32.6273 23.2464 32.9844 24.8229 30.7774C25.3036 30.1045 24.8202 29.0334 24.161 28.7615C23.8425 28.6297 23.4167 28.4649 22.8702 29.0774L22.8673 29.076Z" stroke="white" stroke-width="0.314625" stroke-linejoin="round"/>
<path d="M22.7972 29.0553C22.6873 28.3508 23.0279 27.5145 23.3918 26.534C23.9384 25.0647 25.1992 23.5951 24.1912 18.9301C23.4398 15.4555 18.3959 18.2063 18.3959 18.6774C18.3959 19.1484 18.6238 21.067 18.3134 23.2984C17.9056 26.2127 20.1673 28.6764 22.7711 28.425" stroke="white" stroke-width="0.314625" stroke-linecap="round" stroke-linejoin="round"/>
<path d="M21.5969 18.6074C21.5735 18.768 21.892 19.1979 22.3055 19.2555C22.7188 19.3133 23.0717 18.9782 23.0952 18.816C23.1184 18.6539 22.7998 18.4782 22.3866 18.4205C21.9733 18.3629 21.6174 18.4481 21.5969 18.6074Z" fill="white" stroke="white" stroke-width="0.105"/>
<path d="M34.1818 18.2793C34.2037 18.4399 33.8865 18.8696 33.4732 18.9274C33.0598 18.985 32.7041 18.65 32.6836 18.4879C32.6629 18.3258 32.9789 18.15 33.3922 18.0924C33.8055 18.0348 34.1611 18.1199 34.1818 18.2793Z" fill="white" stroke="white" stroke-width="0.0523125"/>
<path d="M35.6596 17.1654C35.7281 18.4289 35.3875 19.2871 35.3436 20.6316C35.2805 22.5844 36.2748 24.8201 34.7764 27.0586" stroke="white" stroke-width="0.314625" stroke-linecap="round" stroke-linejoin="round"/>
</g>
</g>
<defs>
<clipPath id="clip0_224_896">
<rect width="50" height="50" fill="white"/>
</clipPath>
</defs>
</svg>
