<svg width="50" height="50" viewBox="0 0 50 50" fill="none" xmlns="http://www.w3.org/2000/svg">
<rect width="50" height="50" rx="7" fill="white"/>
<g clip-path="url(#clip0_224_949)">
<path d="M36.2239 14.7196C36.2004 14.5485 36.0505 14.4538 35.9266 14.4433C35.0133 14.3747 34.0999 14.3066 33.1864 14.2391C33.1864 14.2391 31.3692 12.435 31.1698 12.2353C30.9702 12.0357 30.5804 12.0964 30.4291 12.141C30.4069 12.1475 30.0321 12.2632 29.4122 12.455C28.8052 10.7082 27.7338 9.10299 25.8491 9.10299C25.7971 9.10299 25.7435 9.1051 25.69 9.10814C25.1539 8.39928 24.49 8.09131 23.9164 8.09131C19.526 8.09131 17.4285 13.5798 16.7708 16.3688C15.0648 16.8975 13.8529 17.2733 13.698 17.3219C12.7458 17.6206 12.7157 17.6506 12.5906 18.5479C12.4965 19.2273 10.0049 38.4963 10.0049 38.4963L29.4203 42.134L39.9402 39.8583C39.9402 39.8583 36.2471 14.8906 36.2239 14.7196ZM28.3391 12.7869L26.6962 13.2954C26.6968 13.1796 26.6974 13.0657 26.6974 12.9411C26.6974 11.8555 26.5467 10.9814 26.305 10.2885C27.2761 10.4103 27.9229 11.5153 28.3391 12.7869ZM25.1003 10.5037C25.3703 11.1803 25.5458 12.1512 25.5458 13.4613C25.5458 13.5283 25.5452 13.5896 25.5446 13.6516C24.4763 13.9826 23.3153 14.3419 22.1517 14.7023C22.805 12.1809 24.0296 10.9631 25.1003 10.5037ZM23.7959 9.26893C23.9854 9.26893 24.1762 9.33326 24.3589 9.459C22.9519 10.1211 21.4437 11.7887 20.8068 15.1188L18.1248 15.9494C18.8708 13.4094 20.6423 9.26893 23.7959 9.26893Z" fill="#95BF46"/>
<path d="M35.9263 14.4433C35.013 14.3747 34.0996 14.3066 33.1861 14.2391C33.1861 14.2391 31.3689 12.435 31.1695 12.2353C31.0948 12.161 30.9941 12.1229 30.8889 12.1065L29.4209 42.1338L39.9399 39.8583C39.9399 39.8583 36.2468 14.8906 36.2236 14.7196C36.2001 14.5485 36.0502 14.4538 35.9263 14.4433Z" fill="#5E8E3E"/>
<path d="M25.8491 20.256L24.552 24.1146C24.552 24.1146 23.4155 23.508 22.0224 23.508C19.98 23.508 19.8773 24.7897 19.8773 25.1126C19.8773 26.8749 24.471 27.5501 24.471 31.678C24.471 34.9256 22.4112 37.0168 19.6339 37.0168C16.3011 37.0168 14.5967 34.9426 14.5967 34.9426L15.4891 31.9941C15.4891 31.9941 17.241 33.4982 18.7193 33.4982C19.6853 33.4982 20.0782 32.7377 20.0782 32.182C20.0782 29.8832 16.3095 29.7807 16.3095 26.0034C16.3095 22.8242 18.5914 19.7477 23.1975 19.7477C24.9723 19.7477 25.8491 20.256 25.8491 20.256Z" fill="white"/>
</g>
<defs>
<clipPath id="clip0_224_949">
<rect width="30" height="34.2188" fill="white" transform="translate(10 8)"/>
</clipPath>
</defs>
</svg>
