<svg width="50" height="50" viewBox="0 0 50 50" fill="none" xmlns="http://www.w3.org/2000/svg">
<rect width="50" height="50" rx="7" fill="white"/>
<mask id="mask0_224_892" style="mask-type:alpha" maskUnits="userSpaceOnUse" x="10" y="10" width="30" height="30">
<path fill-rule="evenodd" clip-rule="evenodd" d="M31.2735 39.8718C31.5123 39.9653 31.7676 40.0085 32.0236 39.9986C32.2797 39.9887 32.5309 39.926 32.7618 39.8143L38.9383 36.8268C39.2564 36.6729 39.5248 36.4318 39.7126 36.1313C39.9004 35.8309 40 35.4832 40 35.1284V14.8714C40.0001 14.5165 39.9005 14.1688 39.7126 13.8683C39.5248 13.5678 39.2564 13.3267 38.9383 13.1728L32.7618 10.1857C32.4128 10.0169 32.0202 9.9613 31.6384 10.0266C31.2566 10.092 30.9044 10.275 30.6307 10.5504L18.8065 21.3938L13.6563 17.4638C13.424 17.2866 13.1372 17.1967 12.8458 17.2097C12.5545 17.2227 12.2768 17.3378 12.0609 17.535L10.4091 19.0454C10.2803 19.1631 10.1775 19.3065 10.107 19.4664C10.0366 19.6264 10.0001 19.7993 10 19.9743C9.99987 20.1492 10.0361 20.3222 10.1063 20.4822C10.1765 20.6423 10.2791 20.7859 10.4077 20.9037L14.8741 24.9998L10.4079 29.096C10.2794 29.2139 10.1768 29.3575 10.1067 29.5175C10.0365 29.6775 10.0003 29.8505 10.0005 30.0254C10.0006 30.2003 10.037 30.3732 10.1074 30.5331C10.1778 30.693 10.2806 30.8364 10.4093 30.9541L12.0612 32.4645C12.277 32.6618 12.5546 32.7769 12.846 32.7899C13.1374 32.803 13.4242 32.7131 13.6566 32.5359L18.8067 28.6062L30.6309 39.4494C30.8139 39.6333 31.0325 39.7771 31.2735 39.8718ZM32.5045 18.1541L23.5329 24.9998L32.5047 31.8456L32.5045 18.1541Z" fill="white"/>
</mask>
<g mask="url(#mask0_224_892)">
<path d="M38.9391 13.1777L32.7577 10.1857C32.4086 10.0167 32.0158 9.96096 31.6338 10.0263C31.2518 10.0916 30.8994 10.2748 30.6256 10.5504L10.3902 29.096C10.2616 29.2139 10.1589 29.3574 10.0887 29.5174C10.0185 29.6775 9.98229 29.8505 9.98242 30.0254C9.98255 30.2003 10.019 30.3733 10.0895 30.5332C10.1599 30.6931 10.2628 30.8365 10.3916 30.9541L12.0444 32.4645C12.2603 32.662 12.5381 32.7773 12.8297 32.7903C13.1213 32.8034 13.4083 32.7134 13.6407 32.5359L38.0089 13.9535C38.8263 13.3301 40.0006 13.9163 40.0006 14.9477V14.8756C40.0006 14.5208 39.901 14.1733 39.7132 13.8728C39.5254 13.5724 39.2571 13.3316 38.9391 13.1777Z" fill="#0065A9"/>
<g filter="url(#filter0_d_224_892)">
<path d="M38.9391 36.8222L32.7577 39.8137C32.4086 39.9828 32.0159 40.0386 31.6339 39.9733C31.2519 39.9081 30.8995 39.725 30.6256 39.4495L10.3902 20.9036C10.2616 20.7858 10.1589 20.6422 10.0887 20.4822C10.0185 20.3222 9.98229 20.1492 9.98242 19.9742C9.98255 19.7993 10.019 19.6264 10.0895 19.4665C10.1599 19.3065 10.2628 19.1632 10.3916 19.0455L12.0444 17.5351C12.2603 17.3376 12.5381 17.2224 12.8297 17.2093C13.1213 17.1963 13.4083 17.2863 13.6407 17.4637L38.0089 36.0459C38.8263 36.6695 40.0006 36.0834 40.0006 35.0519V35.124C40.0006 35.4788 39.901 35.8264 39.7132 36.1268C39.5254 36.4272 39.2571 36.6682 38.9391 36.8222Z" fill="#007ACC"/>
</g>
<g filter="url(#filter1_d_224_892)">
<path d="M32.7583 39.8144C32.4091 39.9831 32.0163 40.0386 31.6343 39.9732C31.2524 39.9078 30.9 39.7248 30.626 39.4494C31.3178 40.1449 32.501 39.6523 32.501 38.6687V11.3307C32.501 10.3471 31.3178 9.85447 30.626 10.5502C30.9 10.2748 31.2524 10.0918 31.6343 10.0264C32.0163 9.96105 32.4091 10.0165 32.7583 10.1852L38.9385 13.173C39.2568 13.3269 39.5253 13.5679 39.7133 13.8684C39.9013 14.1689 40.001 14.5167 40.001 14.8717V35.1284C40.001 35.4834 39.9013 35.8311 39.7133 36.1317C39.5253 36.4322 39.2568 36.6732 38.9385 36.827L32.7583 39.8144Z" fill="#1F9CF0"/>
</g>
<path opacity="0.25" fill-rule="evenodd" clip-rule="evenodd" d="M31.2561 39.8719C31.4948 39.9654 31.7501 40.0086 32.006 39.9987C32.262 39.9888 32.5133 39.9261 32.7441 39.8144L38.9206 36.8269C39.2387 36.673 39.5071 36.4319 39.695 36.1314C39.8828 35.8309 39.9824 35.4832 39.9823 35.1283V14.8715C39.9824 14.5166 39.8828 14.1689 39.695 13.8684C39.5071 13.5679 39.2387 13.3268 38.9206 13.1729L32.7441 10.1858C32.3951 10.017 32.0025 9.96142 31.6207 10.0268C31.2389 10.0921 30.8867 10.2751 30.613 10.5505L18.7888 21.3939L13.6386 17.4642C13.4063 17.287 13.1195 17.1971 12.8282 17.2101C12.5368 17.2231 12.2591 17.3381 12.0432 17.5354L10.3914 19.0457C10.2627 19.1635 10.1598 19.3069 10.0894 19.4668C10.019 19.6268 9.98255 19.7997 9.98242 19.9746C9.98229 20.1495 10.0185 20.3225 10.0886 20.4826C10.1588 20.6426 10.2614 20.7862 10.39 20.9041L14.8564 24.9999L10.3902 29.0959C10.2617 29.2138 10.159 29.3574 10.0888 29.5174C10.0186 29.6775 9.98241 29.8505 9.98254 30.0254C9.98268 30.2003 10.0191 30.3733 10.0896 30.5332C10.16 30.6932 10.2629 30.8366 10.3916 30.9543L12.0435 32.4647C12.2593 32.6619 12.537 32.777 12.8283 32.7901C13.1197 32.8031 13.4065 32.7132 13.6389 32.536L18.7892 28.6061L30.6134 39.4495C30.7964 39.6334 31.0152 39.7772 31.2561 39.8719ZM32.487 18.154L23.5152 24.9999L32.487 31.8455V18.154Z" fill="url(#paint0_linear_224_892)"/>
</g>
<defs>
<filter id="filter0_d_224_892" x="8.49282" y="15.7185" width="32.9973" height="25.771" filterUnits="userSpaceOnUse" color-interpolation-filters="sRGB">
<feFlood flood-opacity="0" result="BackgroundImageFix"/>
<feColorMatrix in="SourceAlpha" type="matrix" values="0 0 0 0 0 0 0 0 0 0 0 0 0 0 0 0 0 0 127 0" result="hardAlpha"/>
<feOffset/>
<feGaussianBlur stdDeviation="0.744803"/>
<feColorMatrix type="matrix" values="0 0 0 0 0 0 0 0 0 0 0 0 0 0 0 0 0 0 0.25 0"/>
<feBlend mode="overlay" in2="BackgroundImageFix" result="effect1_dropShadow_224_892"/>
<feBlend mode="normal" in="SourceGraphic" in2="effect1_dropShadow_224_892" result="shape"/>
</filter>
<filter id="filter1_d_224_892" x="29.1364" y="8.51015" width="12.3542" height="32.9793" filterUnits="userSpaceOnUse" color-interpolation-filters="sRGB">
<feFlood flood-opacity="0" result="BackgroundImageFix"/>
<feColorMatrix in="SourceAlpha" type="matrix" values="0 0 0 0 0 0 0 0 0 0 0 0 0 0 0 0 0 0 127 0" result="hardAlpha"/>
<feOffset/>
<feGaussianBlur stdDeviation="0.744803"/>
<feColorMatrix type="matrix" values="0 0 0 0 0 0 0 0 0 0 0 0 0 0 0 0 0 0 0.25 0"/>
<feBlend mode="overlay" in2="BackgroundImageFix" result="effect1_dropShadow_224_892"/>
<feBlend mode="normal" in="SourceGraphic" in2="effect1_dropShadow_224_892" result="shape"/>
</filter>
<linearGradient id="paint0_linear_224_892" x1="24.9824" y1="9.99968" x2="24.9824" y2="40.0001" gradientUnits="userSpaceOnUse">
<stop stop-color="white"/>
<stop offset="1" stop-color="white" stop-opacity="0"/>
</linearGradient>
</defs>
</svg>
