<svg width="50" height="50" viewBox="0 0 50 50" fill="none" xmlns="http://www.w3.org/2000/svg">
<rect width="50" height="50" rx="7" fill="white"/>
<g clip-path="url(#clip0_224_976)">
<path d="M37.2578 33.8828H12.7422C11.2187 33.8828 10 32.6641 10 31.1406V21.7656C10 20.2656 11.2187 19.0469 12.7422 19.0469H37.2813C38.7813 19.0469 40.0234 20.2656 40.0234 21.7891V31.1641C40 32.6641 38.7813 33.8828 37.2578 33.8828Z" fill="#7F54B3"/>
<path d="M13.2344 30.9766C13.2344 30.9766 13.8906 33.7422 15.2266 31.8906C16.5625 30.0391 17.8516 27.1328 17.8516 27.1328C17.8516 27.1328 17.9453 26.4063 18.3203 28C18.6953 29.5938 20.3125 31.75 20.3125 31.75C20.3125 31.75 21.7891 33.6016 22.3984 31.6563C22.1641 29.0781 23.0547 24.3906 23.9688 22.1406C24.3438 20.1484 22.2578 20.7109 22.0703 21.1797C21.8828 21.6484 20.5938 24.6484 20.5 27.7891C20.5 27.7891 19.3984 24.7891 19.3047 23.7109C19.2109 22.6094 18.0625 22.3281 17.4062 23.3828C16.75 24.4375 14.7578 28.5156 14.7578 28.5156L13.4688 21.8594C13.4688 21.8594 12.1797 20.1484 11.4297 22.2344C11.4297 22.2344 12.7656 30.4141 13.2344 30.9766ZM30.3906 23.7109C28.3984 20.3828 25.4453 22.9141 25.4453 22.9141C25.4453 22.9141 23.1953 25.5156 24.2031 29.0547C25.8203 32.5469 28.0938 31 28.7031 30.7188C29.3359 30.4141 32.0078 27.3672 30.3906 23.7109ZM28.8672 26.6406C28.8672 28.0234 27.7188 29.3125 26.7812 29.0313C26.2656 28.7266 25.9375 27.9063 25.9375 26.5C26.4063 24.2266 27.4375 23.9219 27.9766 23.9688C28.9844 24.5078 28.9375 25.7031 28.8672 26.6406ZM37.8672 23.7109C35.875 20.3828 32.9219 22.9141 32.9219 22.9141C32.9219 22.9141 30.6719 25.5156 31.6797 29.0547C33.2969 32.5469 35.5703 31 36.1797 30.7188C36.7891 30.4141 39.4844 27.3672 37.8672 23.7109ZM36.3438 26.6406C36.3438 28.0234 35.1953 29.3125 34.2578 29.0313C33.7422 28.7266 33.4141 27.9063 33.4141 26.5C33.8828 24.2266 34.9141 23.9219 35.4531 23.9688C36.4375 24.5078 36.3906 25.7031 36.3438 26.6406Z" fill="white"/>
<path d="M24.3672 33.8828L29.5938 36.9531L28.4922 33.8828L25.4922 33.0391L24.3672 33.8828Z" fill="#7F54B3"/>
</g>
<defs>
<clipPath id="clip0_224_976">
<rect width="30" height="30" fill="white" transform="translate(10 13)"/>
</clipPath>
</defs>
</svg>
